<?xml version="1.0" encoding="UTF-8" standalone="no"?>
<!-- Created with Inkscape (http://www.inkscape.org/) -->

<svg
   width="500"
   height="500"
   viewBox="0 0 132.29167 132.29167"
   version="1.1"
   id="svg5"
   xml:space="preserve"
   xmlns="http://www.w3.org/2000/svg"
   xmlns:svg="http://www.w3.org/2000/svg"><defs
     id="defs2" /><g
     id="layer1"><g
       id="g5775"><rect
         style="fill:#3d7632;fill-opacity:1;stroke:none;stroke-width:0.264583"
         id="rect4800"
         width="132.29167"
         height="132.29167"
         x="-2.5431316e-06"
         y="-2.5431316e-06" /><g
         style="fill:#67ae4e;fill-opacity:1"
         id="g3417"
         transform="matrix(0.36727262,0,0,0.36727262,79.716557,-28.234692)"><g
           id="g3405"
           style="fill:#67ae4e;fill-opacity:1">
	<path
   d="m -2.9,150.4 2.8,-4.2 2.8,-4.1 6.2,-9.3 c 0.8,-1.1 0.5,-2.7 -0.7,-3.4 -1.1,-0.8 -2.7,-0.5 -3.4,0.7 l -6.6,9.9 -2.8,4.2 -2.8,4.2 c -9,-3.5 -18.9,-5.4 -29.5,-5.4 -10.5,0 -20.5,1.9 -29.5,5.4 l -2.8,-4.2 -2.8,-4.2 -6.6,-9.9 c -0.8,-1.1 -2.3,-1.4 -3.4,-0.7 -1.1,0.8 -1.4,2.3 -0.7,3.4 l 6.2,9.3 2.8,4.1 2.8,4.2 c -21,9.8 -35.3,28.3 -35.3,49.6 H 32.5 C 32.4,178.7 18.2,160.2 -2.9,150.4 Z m -63.8,29.7 c -4.1,0 -7.4,-3.3 -7.4,-7.4 0,-4.1 3.3,-7.4 7.4,-7.4 4.1,0 7.4,3.3 7.4,7.4 0,4.1 -3.3,7.4 -7.4,7.4 z m 59.4,0 c -4.1,0 -7.4,-3.3 -7.4,-7.4 0,-4.1 3.3,-7.4 7.4,-7.4 4.1,0 7.4,3.3 7.4,7.4 0.1,4.1 -3.2,7.4 -7.4,7.4 z"
   id="path3397"
   style="fill:#67ae4e;fill-opacity:1" />
	<path
   d="m -105.3,209.8 -1.1,0.1 v 12.3 10.1 86.6 c 0,8.7 7,15.7 15.7,15.7 h 11.3 c -0.4,1.3 -0.6,2.7 -0.6,4.1 v 0.8 5 25.6 c 0,8.2 6.7,14.9 14.9,14.9 8.2,0 14.9,-6.7 14.9,-14.9 v -25.6 -5 -0.8 c 0,-1.4 -0.2,-2.8 -0.6,-4.1 h 27.6 c -0.4,1.3 -0.6,2.7 -0.6,4.1 v 0.8 5 25.6 c 0,8.2 6.7,14.9 14.9,14.9 8.2,0 14.9,-6.7 14.9,-14.9 v -25.6 -5 -0.8 c 0,-1.4 -0.2,-2.8 -0.6,-4.1 h 11.3 c 8.7,0 15.7,-7 15.7,-15.7 v -86.6 -10.1 -12.4 h -1.1 z"
   id="path3399"
   style="fill:#67ae4e;fill-opacity:1" />
	<path
   d="m -131.1,209.9 c -8.2,0 -14.9,6.7 -14.9,14.9 v 63.6 c 0,8.2 6.7,14.9 14.9,14.9 8.2,0 14.9,-6.7 14.9,-14.9 v -63.6 c -0.1,-8.3 -6.7,-14.9 -14.9,-14.9 z"
   id="path3401"
   style="fill:#67ae4e;fill-opacity:1" />
	<path
   d="m 57.2,209.9 c -8.2,0 -14.9,6.7 -14.9,14.9 v 63.6 c 0,8.2 6.7,14.9 14.9,14.9 8.2,0 14.9,-6.7 14.9,-14.9 V 224.8 C 72,216.5 65.4,209.9 57.2,209.9 Z"
   id="path3403"
   style="fill:#67ae4e;fill-opacity:1" />
</g></g></g></g></svg>
